<svg width="14" height="15" viewBox="0 0 14 15" fill="none" xmlns="http://www.w3.org/2000/svg">
<g clip-path="url(#clip0_557_169)">
<path d="M11.625 11.9918H12.4271C12.9793 11.9918 13.4271 11.5441 13.4271 10.9918V8.45694C13.4271 7.90465 12.9793 7.45694 12.4271 7.45694H11.875V3.875C11.875 3.32272 11.4273 2.875 10.875 2.875H1.68457C1.13229 2.875 0.68457 3.32272 0.68457 3.875V11.1341C0.68457 11.6078 1.06856 11.9918 1.54224 11.9918H2" stroke="#5B5F62" stroke-width="1.5" stroke-linecap="round" stroke-linejoin="round"/>
<path d="M11.875 4.7085H0.685303" stroke="#5B5F62" stroke-width="1.5" stroke-linecap="round" stroke-linejoin="round"/>
<path d="M11.875 7.45679H0.685303" stroke="#5B5F62" stroke-width="1.5" stroke-linecap="round" stroke-linejoin="round"/>
<path d="M4.46411 4.7085V7.45307" stroke="#5B5F62" stroke-width="1.5" stroke-linecap="round" stroke-linejoin="round"/>
<path d="M8.03125 4.7085V7.45307" stroke="#5B5F62" stroke-width="1.5" stroke-linecap="round" stroke-linejoin="round"/>
<path d="M3.3899 13.374C4.16089 13.374 4.7859 12.749 4.7859 11.978C4.7859 11.207 4.16089 10.582 3.3899 10.582C2.61891 10.582 1.9939 11.207 1.9939 11.978C1.9939 12.749 2.61891 13.374 3.3899 13.374Z" stroke="#5B5F62" stroke-width="1.5" stroke-linecap="round" stroke-linejoin="round"/>
<path d="M10.23 13.374C11.001 13.374 11.626 12.749 11.626 11.978C11.626 11.207 11.001 10.582 10.23 10.582C9.45899 10.582 8.83398 11.207 8.83398 11.978C8.83398 12.749 9.45899 13.374 10.23 13.374Z" stroke="#5B5F62" stroke-width="1.5" stroke-linecap="round" stroke-linejoin="round"/>
<path d="M4.78638 11.9779H6.80475H8.83398" stroke="#5B5F62" stroke-width="1.5" stroke-linecap="round" stroke-linejoin="round"/>
</g>
<defs>
<clipPath id="clip0_557_169">
<rect width="14" height="14" fill="white" transform="translate(0 0.5)"/>
</clipPath>
</defs>
</svg>
