<svg width="14" height="15" viewBox="0 0 14 15" fill="none" xmlns="http://www.w3.org/2000/svg">
<g clip-path="url(#clip0_534_95)">
<path d="M6.99999 5.15086C8.04165 5.15086 8.88609 4.30642 8.88609 3.26476C8.88609 2.2231 8.04165 1.37866 6.99999 1.37866C5.95833 1.37866 5.11389 2.2231 5.11389 3.26476C5.11389 4.30642 5.95833 5.15086 6.99999 5.15086Z" stroke="#8A8A8A" stroke-linecap="round" stroke-linejoin="round"/>
<path d="M10.3007 8.45155C10.3007 7.57616 9.95294 6.73662 9.33394 6.11762C8.71495 5.49863 7.87541 5.15088 7.00001 5.15088C6.12462 5.15088 5.28508 5.49863 4.66609 6.11762C4.04709 6.73662 3.69934 7.57616 3.69934 8.45155V9.86613H5.11392L5.58544 13.6383H8.41459L8.88611 9.86613H10.3007V8.45155Z" stroke="#8A8A8A" stroke-linecap="round" stroke-linejoin="round"/>
</g>
<defs>
<clipPath id="clip0_534_95">
<rect width="14" height="14" fill="white" transform="translate(0 0.5)"/>
</clipPath>
</defs>
</svg>
