<svg width="14" height="15" viewBox="0 0 14 15" fill="none" xmlns="http://www.w3.org/2000/svg">
<g clip-path="url(#clip0_552_99)">
<path d="M3.32949 11.1706H1.87949C1.51701 11.1404 1.17911 10.9751 0.932811 10.7074C0.686511 10.4398 0.549805 10.0893 0.549805 9.72559C0.549805 9.36185 0.686511 9.0114 0.932811 8.74374C1.17911 8.47608 1.51701 8.31077 1.87949 8.28059H4.17949L5.65949 6.80059L1.59949 4.30059C1.28693 4.10737 1.05939 3.80268 0.962859 3.44813C0.866331 3.09357 0.908017 2.71559 1.07949 2.39059C1.15519 2.20459 1.26819 2.03607 1.41153 1.89544C1.55486 1.7548 1.72549 1.64502 1.9129 1.57287C2.1003 1.50072 2.30049 1.46773 2.50113 1.47594C2.70178 1.48414 2.89861 1.53337 3.07949 1.62059L8.37949 4.07059L10.9395 1.48059C11.2153 1.20476 11.5894 1.0498 11.9795 1.0498C12.3696 1.0498 12.7437 1.20476 13.0195 1.48059C13.2953 1.75641 13.4503 2.13051 13.4503 2.52059C13.4503 2.91066 13.2953 3.28476 13.0195 3.56059L10.4295 6.12059L12.8795 11.4706C12.9601 11.6487 13.0041 11.8413 13.0088 12.0368C13.0136 12.2322 12.9791 12.4267 12.9072 12.6086C12.8354 12.7904 12.7278 12.956 12.5908 13.0955C12.4537 13.235 12.2901 13.3456 12.1095 13.4206C11.7845 13.5921 11.4065 13.6337 11.052 13.5372C10.6974 13.4407 10.3927 13.2131 10.1995 12.9006L7.69949 8.84059L6.21949 10.3206V12.6206C6.18931 12.9831 6.024 13.321 5.75634 13.5673C5.48868 13.8136 5.13823 13.9503 4.77449 13.9503C4.41076 13.9503 4.0603 13.8136 3.79265 13.5673C3.52499 13.321 3.35967 12.9831 3.32949 12.6206V11.1706Z" stroke="#5B5F62" stroke-width="1.5" stroke-linecap="round" stroke-linejoin="round"/>
</g>
<defs>
<clipPath id="clip0_552_99">
<rect width="14" height="14" fill="white" transform="translate(0 0.5)"/>
</clipPath>
</defs>
</svg>
