<svg width="14" height="15" viewBox="0 0 14 15" fill="none" xmlns="http://www.w3.org/2000/svg">
<g clip-path="url(#clip0_598_2117)">
<path d="M6.0332 8.42041L0.851807 13.6018" stroke="#5B5F62" stroke-width="1.5" stroke-linecap="round" stroke-linejoin="round"/>
<path d="M6.99998 9.50562L6.84026 9.66637C6.06722 10.4444 6.06501 11.6999 6.83531 12.4807L7.16746 12.8173" stroke="#5B5F62" stroke-width="1.5" stroke-linecap="round" stroke-linejoin="round"/>
<path d="M8.35452 3.00793L11.4447 6.09813L8.45036 10.0353C8.26698 10.2765 7.91303 10.3004 7.69883 10.0862L4.36643 6.75382C4.15223 6.53962 4.17619 6.18567 4.41731 6.00229L8.35452 3.00793Z" stroke="#5B5F62" stroke-width="1.5" stroke-linecap="round" stroke-linejoin="round"/>
<path d="M7.93639 2.58979C7.86001 2.51387 7.80125 2.42305 7.76642 2.3271C7.73159 2.23115 7.72201 2.13369 7.73871 2.0452C7.75084 1.95394 7.78908 1.8739 7.84936 1.81363C7.90963 1.75335 7.98967 1.71511 8.08093 1.70298L12.4378 1.29688C12.5222 1.28829 12.6126 1.30227 12.7008 1.3375C12.789 1.37274 12.8722 1.4281 12.9426 1.49849C13.0129 1.56887 13.0683 1.65201 13.1035 1.74022C13.1388 1.82844 13.1528 1.91889 13.1442 2.00323L12.75 6.3721C12.7379 6.46336 12.6997 6.5434 12.6394 6.60367C12.5791 6.66394 12.4991 6.70219 12.4078 6.71432C12.3217 6.73061 12.227 6.722 12.1334 6.68937C12.0399 6.65675 11.9508 6.60127 11.8752 6.52861L7.93639 2.58979Z" stroke="#5B5F62" stroke-width="1.5" stroke-linecap="round" stroke-linejoin="round"/>
<path d="M10.0239 11.0776L10.4752 11.5289" stroke="#5B5F62" stroke-width="1.5" stroke-linecap="round" stroke-linejoin="round"/>
<path d="M12.8246 11.0776L12.3733 11.5289" stroke="#5B5F62" stroke-width="1.5" stroke-linecap="round" stroke-linejoin="round"/>
<path d="M10.0239 13.6018L10.4752 13.1505" stroke="#5B5F62" stroke-width="1.5" stroke-linecap="round" stroke-linejoin="round"/>
<path d="M12.8246 13.6018L12.3733 13.1505" stroke="#5B5F62" stroke-width="1.5" stroke-linecap="round" stroke-linejoin="round"/>
</g>
<defs>
<clipPath id="clip0_598_2117">
<rect width="14" height="14" fill="white" transform="translate(0 0.5)"/>
</clipPath>
</defs>
</svg>
