<svg width="14" height="14" viewBox="0 0 14 14" fill="none" xmlns="http://www.w3.org/2000/svg">
<g clip-path="url(#clip0_685_2098)">
<path d="M7.35432 13.3836C7.12455 13.4722 6.87002 13.4722 6.64025 13.3836C4.8474 12.6952 3.30552 11.4793 2.21829 9.89622C1.13105 8.31318 0.54962 6.43757 0.550783 4.51713V1.54182C0.550783 1.27879 0.655272 1.02652 0.841265 0.840532C1.02726 0.654539 1.27952 0.550049 1.54255 0.550049H12.452C12.715 0.550049 12.9673 0.654539 13.1533 0.840532C13.3393 1.02652 13.4438 1.27879 13.4438 1.54182V4.51713C13.4449 6.43757 12.8635 8.31318 11.7763 9.89622C10.689 11.4793 9.14718 12.6952 7.35432 13.3836Z" stroke="#60B483" stroke-width="1.5" stroke-linecap="round" stroke-linejoin="round"/>
<path d="M10 4L6 8.5L4 7" stroke="#60B483" stroke-width="1.5" stroke-linecap="round" stroke-linejoin="round"/>
</g>
<defs>
<clipPath id="clip0_685_2098">
<rect width="14" height="14" fill="white"/>
</clipPath>
</defs>
</svg>
