<svg width="14" height="15" viewBox="0 0 14 15" fill="none" xmlns="http://www.w3.org/2000/svg">
<g clip-path="url(#clip0_552_119)">
<path d="M1.5 11H1C0.73478 11 0.48043 10.8947 0.292893 10.7071C0.105357 10.5196 0 10.2652 0 10V8.00002C0 7.7348 0.105357 7.48045 0.292893 7.29291C0.48043 7.10537 0.73478 7.00002 1 7.00002H2.5L3.27 4.68002C3.33958 4.47304 3.475 4.29452 3.65557 4.17173C3.83614 4.04894 4.05193 3.98864 4.27 4.00002H8.28C8.49807 3.98864 8.71386 4.04894 8.89443 4.17173C9.075 4.29452 9.21042 4.47304 9.28 4.68002L10 7.00002H12C12.2652 7.00002 12.5196 7.10537 12.7071 7.29291C12.8946 7.48045 13 7.7348 13 8.00002V10C13 10.2652 12.8946 10.5196 12.7071 10.7071C12.5196 10.8947 12.2652 11 12 11H11.5" stroke="#5B5F62" stroke-width="1.5" stroke-linecap="round" stroke-linejoin="round"/>
<path d="M9.99881 12.4999C9.16984 12.4999 8.4978 11.8279 8.4978 10.9989C8.4978 10.1698 9.16984 9.4978 9.99881 9.4978C10.8279 9.4978 11.4999 10.1698 11.4999 10.9989C11.4999 11.8279 10.8279 12.4999 9.99881 12.4999Z" stroke="#5B5F62" stroke-width="1.5" stroke-linecap="round" stroke-linejoin="round"/>
<path d="M2.99886 12.4999C2.16985 12.4999 1.4978 11.8279 1.4978 10.9989C1.4978 10.1699 2.16985 9.4978 2.99886 9.4978C3.82787 9.4978 4.49992 10.1699 4.49992 10.9989C4.49992 11.8279 3.82787 12.4999 2.99886 12.4999Z" stroke="#5B5F62" stroke-width="1.5" stroke-linecap="round" stroke-linejoin="round"/>
<path d="M8.49789 11H4.5" stroke="#5B5F62" stroke-width="1.5" stroke-linecap="round" stroke-linejoin="round"/>
<path d="M6.5 4V2" stroke="#5B5F62" stroke-width="1.5" stroke-linecap="round" stroke-linejoin="round"/>
</g>
<defs>
<clipPath id="clip0_552_119">
<rect width="14" height="14" fill="white" transform="translate(0 0.5)"/>
</clipPath>
</defs>
</svg>
