<svg width="14" height="15" viewBox="0 0 14 15" fill="none" xmlns="http://www.w3.org/2000/svg">
<g clip-path="url(#clip0_598_2111)">
<path d="M5 9H9" stroke="#5B5F62" stroke-width="1.5" stroke-linecap="round" stroke-linejoin="round"/>
<path d="M7 7V11" stroke="#5B5F62" stroke-width="1.5" stroke-linecap="round" stroke-linejoin="round"/>
<path d="M12.5 4H1.5C0.947715 4 0.5 4.44772 0.5 5V13C0.5 13.5523 0.947715 14 1.5 14H12.5C13.0523 14 13.5 13.5523 13.5 13V5C13.5 4.44772 13.0523 4 12.5 4Z" stroke="#5B5F62" stroke-width="1.5" stroke-linecap="round" stroke-linejoin="round"/>
<path d="M10 4V2C10 1.73478 9.89464 1.48043 9.70711 1.29289C9.51957 1.10536 9.26522 1 9 1H5C4.73478 1 4.48043 1.10536 4.29289 1.29289C4.10536 1.48043 4 1.73478 4 2V4" stroke="#5B5F62" stroke-width="1.5" stroke-linecap="round" stroke-linejoin="round"/>
</g>
<defs>
<clipPath id="clip0_598_2111">
<rect width="14" height="14" fill="white" transform="translate(0 0.5)"/>
</clipPath>
</defs>
</svg>
